<svg width="420" height="420" viewBox="0 0 420 420" xmlns="http://www.w3.org/2000/svg">
  <ellipse cx="210" cy="370" rx="105" ry="18" fill="#80514e" opacity="0.2"/>
  <g stroke="#74453e" stroke-width="9" stroke-linejoin="round" stroke-linecap="round">
    <path d="M109 221C109 142 151 91 210 91C269 91 311 142 311 221Z" fill="#f08b6e"/>
    <circle cx="157" cy="160" r="15" fill="#ffd98d" stroke="none"/>
    <circle cx="241" cy="129" r="13" fill="#ffd98d" stroke="none"/>
    <circle cx="275" cy="184" r="17" fill="#ffd98d" stroke="none"/>
    <path d="M139 218C139 218 129 347 210 350C291 347 281 218 281 218Z" fill="#ffe8b4"/>
    <circle cx="178" cy="264" r="10" fill="#74453e" stroke="none"/>
    <circle cx="242" cy="264" r="10" fill="#74453e" stroke="none"/>
    <path d="M185 296C198 310 222 310 235 296" fill="none"/>
    <circle cx="156" cy="292" r="16" fill="#f39b9b" opacity="0.75" stroke="none"/>
    <circle cx="264" cy="292" r="16" fill="#f39b9b" opacity="0.75" stroke="none"/>
  </g>
</svg>
